<svg xmlns="http://www.w3.org/2000/svg" viewBox="0 0 1200 630">
  <rect width="1200" height="630" fill="#f6f4eb"/>
  <path d="M0 80h1200M0 160h1200M0 240h1200M0 320h1200M0 400h1200M0 480h1200M0 560h1200M80 0v630M160 0v630M240 0v630M320 0v630M400 0v630M480 0v630M560 0v630M640 0v630M720 0v630M800 0v630M880 0v630M960 0v630M1040 0v630M1120 0v630" stroke="#12150f" stroke-opacity=".05"/>
  <circle cx="130" cy="119" r="35" fill="#d7ff64" stroke="#12150f" stroke-width="9"/>
  <path d="m155 144 33 33" stroke="#12150f" stroke-width="9" stroke-linecap="round"/>
  <text x="218" y="140" fill="#12150f" font-family="Arial, sans-serif" font-size="48" font-weight="800">SEO Researcher</text>
  <text x="80" y="300" fill="#12150f" font-family="Arial, sans-serif" font-size="78" font-weight="800">Give your AI agent the</text>
  <text x="80" y="390" fill="#12150f" font-family="Arial, sans-serif" font-size="78" font-weight="800">SEO research it’s missing.</text>
  <rect x="80" y="470" width="560" height="74" rx="12" fill="#d7ff64" stroke="#12150f" stroke-width="3"/>
  <text x="112" y="520" fill="#12150f" font-family="Arial, sans-serif" font-size="31" font-weight="700">Google competitors • gaps • AI citations</text>
</svg>
